<mxfile host="app.diagrams.net" agent="Mozilla/5.0 (Windows NT 10.0; Win64; x64) AppleWebKit/537.36 (KHTML, like Gecko) Chrome/140.0.0.0 Safari/537.36 Edg/140.0.0.0" version="28.2.5">
  <diagram name="PÃ¡gina-1" id="oWJyaqRUkAM4hPtMBXyE">
    <mxGraphModel dx="1668" dy="925" grid="1" gridSize="10" guides="1" tooltips="1" connect="1" arrows="1" fold="1" page="1" pageScale="1" pageWidth="827" pageHeight="1169" math="0" shadow="0">
      <root>
        <mxCell id="0" />
        <mxCell id="1" parent="0" />
        <mxCell id="-Q6fiPQiwuXqvcKXmwLx-4" value="" style="edgeStyle=orthogonalEdgeStyle;rounded=0;orthogonalLoop=1;jettySize=auto;html=1;" edge="1" parent="1" source="-Q6fiPQiwuXqvcKXmwLx-1" target="-Q6fiPQiwuXqvcKXmwLx-3">
          <mxGeometry relative="1" as="geometry" />
        </mxCell>
        <mxCell id="-Q6fiPQiwuXqvcKXmwLx-1" value="i" style="ellipse;whiteSpace=wrap;html=1;" vertex="1" parent="1">
          <mxGeometry x="354" y="10" width="120" height="80" as="geometry" />
        </mxCell>
        <mxCell id="-Q6fiPQiwuXqvcKXmwLx-38" value="" style="edgeStyle=orthogonalEdgeStyle;rounded=0;orthogonalLoop=1;jettySize=auto;html=1;" edge="1" parent="1" source="-Q6fiPQiwuXqvcKXmwLx-2" target="-Q6fiPQiwuXqvcKXmwLx-24">
          <mxGeometry relative="1" as="geometry" />
        </mxCell>
        <mxCell id="-Q6fiPQiwuXqvcKXmwLx-2" value="ler num" style="shape=parallelogram;perimeter=parallelogramPerimeter;whiteSpace=wrap;html=1;fixedSize=1;" vertex="1" parent="1">
          <mxGeometry x="210" y="210" width="120" height="60" as="geometry" />
        </mxCell>
        <mxCell id="-Q6fiPQiwuXqvcKXmwLx-6" value="" style="edgeStyle=orthogonalEdgeStyle;rounded=0;orthogonalLoop=1;jettySize=auto;html=1;" edge="1" parent="1" source="-Q6fiPQiwuXqvcKXmwLx-3" target="-Q6fiPQiwuXqvcKXmwLx-2">
          <mxGeometry relative="1" as="geometry" />
        </mxCell>
        <mxCell id="-Q6fiPQiwuXqvcKXmwLx-3" value="contador = 0&lt;div&gt;i = 1&lt;/div&gt;" style="rounded=0;whiteSpace=wrap;html=1;" vertex="1" parent="1">
          <mxGeometry x="354" y="130" width="120" height="60" as="geometry" />
        </mxCell>
        <mxCell id="-Q6fiPQiwuXqvcKXmwLx-34" value="" style="edgeStyle=orthogonalEdgeStyle;rounded=0;orthogonalLoop=1;jettySize=auto;html=1;" edge="1" parent="1" source="-Q6fiPQiwuXqvcKXmwLx-7" target="-Q6fiPQiwuXqvcKXmwLx-33">
          <mxGeometry relative="1" as="geometry" />
        </mxCell>
        <mxCell id="-Q6fiPQiwuXqvcKXmwLx-7" value="num MOD i == 0" style="rhombus;whiteSpace=wrap;html=1;" vertex="1" parent="1">
          <mxGeometry x="100" y="480" width="184" height="120" as="geometry" />
        </mxCell>
        <mxCell id="-Q6fiPQiwuXqvcKXmwLx-26" value="" style="edgeStyle=orthogonalEdgeStyle;rounded=0;orthogonalLoop=1;jettySize=auto;html=1;" edge="1" parent="1" source="-Q6fiPQiwuXqvcKXmwLx-24" target="-Q6fiPQiwuXqvcKXmwLx-25">
          <mxGeometry relative="1" as="geometry" />
        </mxCell>
        <mxCell id="-Q6fiPQiwuXqvcKXmwLx-27" value="nao" style="edgeLabel;html=1;align=center;verticalAlign=middle;resizable=0;points=[];" vertex="1" connectable="0" parent="-Q6fiPQiwuXqvcKXmwLx-26">
          <mxGeometry x="-0.4937" relative="1" as="geometry">
            <mxPoint as="offset" />
          </mxGeometry>
        </mxCell>
        <mxCell id="-Q6fiPQiwuXqvcKXmwLx-31" style="edgeStyle=orthogonalEdgeStyle;rounded=0;orthogonalLoop=1;jettySize=auto;html=1;" edge="1" parent="1" source="-Q6fiPQiwuXqvcKXmwLx-24" target="-Q6fiPQiwuXqvcKXmwLx-7">
          <mxGeometry relative="1" as="geometry" />
        </mxCell>
        <mxCell id="-Q6fiPQiwuXqvcKXmwLx-32" value="sim" style="edgeLabel;html=1;align=center;verticalAlign=middle;resizable=0;points=[];" vertex="1" connectable="0" parent="-Q6fiPQiwuXqvcKXmwLx-31">
          <mxGeometry x="0.1733" relative="1" as="geometry">
            <mxPoint as="offset" />
          </mxGeometry>
        </mxCell>
        <mxCell id="-Q6fiPQiwuXqvcKXmwLx-24" value="i &amp;lt;= num" style="rhombus;whiteSpace=wrap;html=1;" vertex="1" parent="1">
          <mxGeometry x="180" y="340" width="184" height="120" as="geometry" />
        </mxCell>
        <mxCell id="-Q6fiPQiwuXqvcKXmwLx-29" value="" style="edgeStyle=orthogonalEdgeStyle;rounded=0;orthogonalLoop=1;jettySize=auto;html=1;" edge="1" parent="1" source="-Q6fiPQiwuXqvcKXmwLx-25" target="-Q6fiPQiwuXqvcKXmwLx-28">
          <mxGeometry relative="1" as="geometry" />
        </mxCell>
        <mxCell id="-Q6fiPQiwuXqvcKXmwLx-25" value="contador == 2" style="rhombus;whiteSpace=wrap;html=1;" vertex="1" parent="1">
          <mxGeometry x="484" y="360" width="194" height="80" as="geometry" />
        </mxCell>
        <mxCell id="-Q6fiPQiwuXqvcKXmwLx-40" style="edgeStyle=orthogonalEdgeStyle;rounded=0;orthogonalLoop=1;jettySize=auto;html=1;entryX=1;entryY=0.5;entryDx=0;entryDy=0;" edge="1" parent="1" source="-Q6fiPQiwuXqvcKXmwLx-28" target="-Q6fiPQiwuXqvcKXmwLx-39">
          <mxGeometry relative="1" as="geometry">
            <Array as="points">
              <mxPoint x="830" y="670" />
            </Array>
          </mxGeometry>
        </mxCell>
        <mxCell id="-Q6fiPQiwuXqvcKXmwLx-28" value="Escreva &quot;O numero e primo&quot;" style="shape=parallelogram;perimeter=parallelogramPerimeter;whiteSpace=wrap;html=1;fixedSize=1;" vertex="1" parent="1">
          <mxGeometry x="770" y="370" width="217" height="60" as="geometry" />
        </mxCell>
        <mxCell id="-Q6fiPQiwuXqvcKXmwLx-30" value="sim" style="text;html=1;align=center;verticalAlign=middle;resizable=0;points=[];autosize=1;strokeColor=none;fillColor=none;" vertex="1" parent="1">
          <mxGeometry x="690" y="378" width="40" height="30" as="geometry" />
        </mxCell>
        <mxCell id="-Q6fiPQiwuXqvcKXmwLx-35" style="edgeStyle=orthogonalEdgeStyle;rounded=0;orthogonalLoop=1;jettySize=auto;html=1;entryX=0;entryY=0.5;entryDx=0;entryDy=0;" edge="1" parent="1" source="-Q6fiPQiwuXqvcKXmwLx-33" target="-Q6fiPQiwuXqvcKXmwLx-24">
          <mxGeometry relative="1" as="geometry">
            <Array as="points">
              <mxPoint x="80" y="690" />
              <mxPoint x="80" y="560" />
              <mxPoint x="50" y="560" />
              <mxPoint x="50" y="400" />
            </Array>
          </mxGeometry>
        </mxCell>
        <mxCell id="-Q6fiPQiwuXqvcKXmwLx-33" value="contador++&lt;div&gt;i++&lt;/div&gt;" style="rounded=0;whiteSpace=wrap;html=1;" vertex="1" parent="1">
          <mxGeometry x="132" y="660" width="120" height="60" as="geometry" />
        </mxCell>
        <mxCell id="-Q6fiPQiwuXqvcKXmwLx-39" value="f" style="ellipse;whiteSpace=wrap;html=1;" vertex="1" parent="1">
          <mxGeometry x="440" y="630" width="120" height="80" as="geometry" />
        </mxCell>
        <mxCell id="-Q6fiPQiwuXqvcKXmwLx-41" style="edgeStyle=orthogonalEdgeStyle;rounded=0;orthogonalLoop=1;jettySize=auto;html=1;entryX=0.558;entryY=0.025;entryDx=0;entryDy=0;entryPerimeter=0;" edge="1" parent="1" source="-Q6fiPQiwuXqvcKXmwLx-25" target="-Q6fiPQiwuXqvcKXmwLx-39">
          <mxGeometry relative="1" as="geometry">
            <Array as="points">
              <mxPoint x="507" y="500" />
              <mxPoint x="507" y="500" />
            </Array>
          </mxGeometry>
        </mxCell>
      </root>
    </mxGraphModel>
  </diagram>
</mxfile>
